<?xml version="1.0" encoding="UTF-8" standalone="no"?>
<svg
   version="1.1"
   style="display:block"
   viewBox="0 0 2048 2048"
   width="1024"
   height="1024"
   id="svg39"
   sodipodi:docname="replicate-prediction-eajt4ncve5rm80cn6df9tcgjnc.svg"
   xml:space="preserve"
   xmlns:inkscape="http://www.inkscape.org/namespaces/inkscape"
   xmlns:sodipodi="http://sodipodi.sourceforge.net/DTD/sodipodi-0.dtd"
   xmlns="http://www.w3.org/2000/svg"
   xmlns:svg="http://www.w3.org/2000/svg"><defs
     id="defs39"><clipPath
       clipPathUnits="userSpaceOnUse"
       id="clipPath123"><path
         id="path124"
         style="fill:#ff0000;fill-opacity:1;fill-rule:nonzero;stroke:none;stroke-width:2"
         d="M 624.05858,832.10938 V 1124.918 c 1.07892,0.2736 2.1941,0.6108 3.35158,1.0351 2.12266,0.778 4.21132,1.6464 6.3164,2.4727 3.578,1.3633 7.05288,2.9738 10.59374,4.4258 3.0623,1.2384 6.11008,2.5377 9.08986,3.9648 0.3635,0.1894 0.72632,0.377 1.08984,0.5664 15.57406,8.1157 14.12812,21.7155 4.2539,24.8047 -0.43218,2.947 -5.13818,6.6344 -9.66406,10.0352 0.79998,2.9164 1.4981,5.8702 2.64062,8.6679 1.23814,2.8555 2.66258,5.6275 3.96876,8.4532 1.80506,3.8405 3.40564,7.7723 5.0039,11.7031 0.58658,1.4628 1.08484,2.96 1.63672,4.4375 2.51952,1.1542 5.11968,2.5537 7.79688,4.2461 3.52084,2.2257 7.39246,4.1924 10.48436,7.0273 1.95088,1.7887 3.7709,3.7166 5.65626,5.5742 0.74174,0.8526 1.40844,1.7613 2.10938,2.6446 11.99566,0.9685 24.00038,1.8128 36,2.7343 6.647,0.4853 13.29752,0.9172 19.94532,1.3985 -3.9815,-2.4089 -7.68566,-5.2102 -11.41016,-8.0235 -8.88694,-6.467 -18.04282,-12.5542 -26.95314,-18.9882 -5.13158,-3.7856 -10.16382,-7.6934 -15.14452,-11.6758 -17.83804,-14.2626 -20.85472,-30.211 -15.14452,-40.2891 -2.79444,-7.1694 3.11248,-15.7357 17.87888,-15.5898 3.0024,0.03 5.9901,0.3656 8.98438,0.5586 4.30848,0.262 8.63102,0.1738 12.94532,0.1328 2.5309,-0.031 5.06278,-0.056 7.59376,-0.078 0.75792,-0.01 1.51536,-0.016 2.27342,-0.016 22.16286,-0.127 24.60506,19.7877 7.23828,24.1875 1.02904,0.7765 2.04484,1.5715 3.08596,2.3321 8.86468,6.3436 17.91022,12.4309 26.73436,18.832 3.06756,2.0207 5.79364,4.5918 8.91406,6.539 0.179,0.1118 -0.41624,-0.2734 -0.40624,-0.4843 0.0218,-0.4787 0.8372,0.5768 0.24218,-0.125 3.02722,0.4679 6.10716,0.5681 9.16016,0.8125 5.62246,0.42 11.22804,0.8897 16.79686,1.7851 5.15904,1.0765 11.28458,2.5413 15.54298,5.8125 1.90812,1.4657 3.65024,3.133 5.47656,4.6992 5.4329,5.8869 7.43156,13.309 8.19532,21.0274 0.114,1.4619 0.1304,1.7083 0.1914,2.8633 0.0484,0.12 0.0556,0.1498 0.168,0.3437 0.1354,0.4144 0.27098,0.8279 0.40626,1.2422 0.36264,1.1108 0.579,2.1445 0.8711,3.2188 4.98342,-1.8674 10.89072,-3.1435 17.79296,-3.5391 3.25184,-0.1858 6.56516,0.2898 9.80468,-0.066 0.65668,-0.08 1.31596,-0.137 1.97658,-0.1914 3.5845,-1.4734 7.09326,-3.1302 10.45312,-5.0625 0.81344,-0.4855 1.6261,-0.9681 2.4375,-1.457 2.45878,-1.4816 5.31712,-2.8699 7.48046,-4.8008 0.1964,-0.1754 -0.45664,0.2652 -0.68358,0.3984 0.175,-0.4773 0.012,0.022 -0.72266,0.5938 -0.0476,0.037 0.1222,-0.158 0.0624,-0.168 -0.0772,-0.012 -0.1992,0.2244 -0.1796,0.1484 0.0988,-0.3814 0.71518,-1.2172 -0.0704,-0.074 1.09262,-3.6983 2.02862,-7.4441 3.04686,-11.164 0.91962,-2.875 1.3373,-5.8649 1.69142,-8.8516 0.1252,-1.1648 0.25234,-2.3314 0.3789,-3.4961 0.4607,-4.2393 1.25482,-8.0656 2.3086,-11.5039 -3.79592,-2.6019 -7.52522,-5.2962 -11.02344,-8.2852 -3.0665,-2.6713 -6.05474,-5.418 -8.8125,-8.4101 -1.17608,-1.2761 -2.17352,-2.5491 -3.02344,-3.8086 -2.24946,-0.4847 -4.47758,-1.0495 -6.65234,-1.8203 -1.43496,-0.4688 -2.87468,-0.9268 -4.30078,-1.4219 -0.1468,-0.016 -0.29378,-0.028 -0.58204,-0.059 -1.22534,-0.1392 -2.44804,-0.3475 -3.67968,-0.3945 -1.8287,-0.098 -3.65564,-0.2232 -5.47266,-0.4571 -23.0934,-2.9735 -21.80496,-25.0162 -1.2539,-25.1679 1.37008,-0.01 2.82348,0.077 4.36328,0.2734 1.21632,0.1554 2.44362,0.2359 3.66796,0.2969 1.7395,0.049 3.46086,0.3268 5.1875,0.5195 1.86892,0.1082 3.68146,0.5092 5.45312,1.1016 1.45584,0.5249 2.93508,0.9804 4.40626,1.4609 2.9586,1.0721 6.07056,1.5581 9.15624,2.1055 2.07978,0.3748 4.1725,0.6877 6.26172,1.0039 1.48978,0.2255 2.80424,0.5761 4.08594,0.9453 2.8749,0.4175 6.09114,1.5473 9.54688,3.5859 3.27316,1.931 6.37416,4.1219 9.76954,5.8399 0.84324,0.4116 1.6639,0.867 2.52734,1.2344 0.8985,0.3823 1.83006,0.6843 2.75,1.0117 4.0635,1.446 8.22494,2.6311 12.43358,3.582 2.18546,0.4938 4.3908,0.8989 6.58596,1.3477 11.9105,2.1863 23.76922,4.6236 35.5703,7.3359 24.20542,5.5633 18.58324,30.022 -5.6211,24.4531 -5.63298,-1.2961 -11.28102,-2.5194 -16.9414,-3.6875 19.87584,10.3894 11.3782,30.2491 -8.01562,23.6446 -0.57774,3.6707 -1.3054,7.3164 -2.3711,10.8828 -1.4874,5.4208 -2.76152,10.9122 -4.71484,16.1914 -2.74198,6.4133 -5.773,11.9781 -10.58594,16.8906 3.2685,0.6337 6.56918,1.2885 9.17188,1.9063 1.79676,0.4261 3.53606,1.0625 5.30468,1.5937 1.2976,0.4927 12.86984,4.3342 13.6289,6.6719 3.5546,10.9469 6.37126,22.4739 6.1211,33.9804 -0.1094,5.0361 -13.20776,11.21 -17.45312,12.5391 -9.3623,2.7532 -18.97572,4.6367 -28.69922,5.5352 -7.93554,0.6851 -15.89398,1.0347 -23.83202,1.7031 -1.45704,0.1234 -2.9104,0.2804 -4.3633,0.4414 2.83178,2.3392 5.75356,4.5907 8.0586,7.4297 1.81722,2.238 3.17154,5.0085 3.625,7.8555 2.06422,12.96 -0.0384,19.9872 -8.14454,29.2031 -2.47678,2.4826 -5.04422,4.7961 -7.75,6.8906 2.02046,1.0652 3.99804,2.2169 5.96876,3.4063 2.3431,1.9081 4.2312,3.4208 6.90234,5.496 1.5782,1.2185 2.9884,2.3822 4.35156,3.25 3.52278,0.2918 7.06606,0.2984 10.59766,0.2305 9.6057,-0.1852 19.1686,-1.1639 28.70704,-2.2461 17.28078,-2.1576 34.56918,-4.2505 51.875,-6.1992 8.29152,-0.969 16.60408,-1.8135 24.9453,-2.1133 5.3105,-3.8476 10.5911,-7.735 15.8476,-11.6562 4.1196,-3.2353 8.6418,-5.9245 12.7383,-9.1836 0.774,-0.7459 1.7015,-1.315 2.5352,-1.9922 -0.1208,0.073 -0.261,0.2133 -0.3282,0.1524 -0.2344,-0.2133 0.4274,-0.4738 0.6016,-0.7382 0.4906,-0.7456 0.897,-1.5428 1.3867,-2.2891 3.3759,-6.0756 6.6946,-12.1646 10.5195,-17.9727 3.6773,-6.4489 9.0737,-11.3478 14.8399,-15.875 6.3858,-4.8599 13.0589,-9.3224 19.8359,-13.6132 6.0589,-3.6906 12.6768,-6.0411 19.4336,-7.9727 0.023,-0.023 0.044,-0.047 0.066,-0.07 -0.3271,-1.5763 -0.5944,-3.0007 -0.75,-3.7188 -0.3114,-2.9456 -0.2704,-5.8804 -0.039,-8.8047 -1.6718,-5.9421 -0.6472,-11.9052 2.7929,-16.7343 0.01,-0.049 0.021,-0.099 0.031,-0.1484 0.6049,-3.0126 1.2537,-6.0178 1.8633,-9.0312 -4.5214,-5.72 -8.9734,-11.4855 -13.1875,-17.4375 -4.8337,-6.6975 -8.8761,-13.9274 -13.6016,-20.6953 -0.6078,-0.8275 -1.2107,-1.6543 -1.8203,-2.4805 -6.4938,-8.8012 -9.5854,-17.1028 -10.1641,-24.2812 -0.7531,0.043 -1.504,0.1356 -2.2578,0.164 -22.2937,0.8396 -24.5187,-18.7611 -6.7812,-23.9297 -19.0242,-7.5884 -15.8227,-23.5676 2.5117,-23.8203 1.9632,-0.027 4.0986,0.1284 6.3984,0.4922 0.9843,0.1558 1.8959,0.7824 2.8985,0.8164 1.5666,0.2973 3.1422,0.484 4.7304,0.6133 1.7102,0.1338 3.4225,0.1998 5.1368,0.2539 1.3876,0.041 2.7786,0.045 4.1679,0.055 2.2295,-0.052 4.452,0.096 6.6758,0.2305 2.2738,0.1086 4.547,0.223 6.8164,0.4062 13.9228,1.1235 19.3677,9.5379 17.0664,16.3242 9.0384,-0.4753 18.0847,-0.7622 27.1328,-0.9765 -14.0212,-7.1895 -11.0186,-22.6444 5.1485,-22.8008 1.9198,-0.018 4.0245,0.1764 6.3086,0.6289 1.067,0.2114 2.1179,0.5019 3.1796,0.7422 1.0316,-0.2952 2.1099,-0.562 3.2774,-0.7657 4.9653,-0.8656 10.0657,-0.6866 15.0898,-0.7226 9.1044,0.027 18.1896,-0.6347 27.2774,-1.0938 1.5434,-0.087 3.0887,-0.1358 4.6328,-0.1954 V 832.10938 Z m 541.71872,345.39842 c -3.3957,0.02 -6.792,-0.01 -10.1875,0.066 -13.1594,0.2183 -26.3177,0.568 -39.4648,1.1953 0.4145,0.57 0.8338,1.1365 1.2422,1.711 4.5882,6.6919 8.719,13.6836 13.3555,20.3437 3.1194,4.4887 6.48,8.7944 9.8398,13.1016 6.9002,-9.2171 13.7663,-18.4666 19.8945,-28.2149 1.28,-2.0152 3.2177,-5.2164 5.3203,-8.2031 z m -541.71872,3.9219 v 38.0625 c 0.5452,-6.9936 4.31914,-12.754 10.5,-15.8008 -0.55148,-1.2794 -1.04688,-2.5828 -1.64062,-3.8437 -1.53836,-3.3457 -3.26946,-6.6036 -4.6328,-10.0274 -0.92316,-2.4918 -1.58352,-5.066 -2.31642,-7.6172 -0.68226,-0.2201 -1.31168,-0.4861 -1.91016,-0.7734 z m 0,41.332 v 188.6094 h 223.48048 c -0.79244,-0.6132 -1.52874,-1.1647 -2.29298,-1.793 -0.29718,-0.138 -0.61852,-0.3129 -0.83984,-0.4023 -2.5493,-1.0178 -5.28782,-1.5006 -7.9453,-2.1446 -0.88548,-0.3949 -0.21354,-0.1404 -2.21874,-0.2656 -2.92156,-0.1846 -5.85238,-0.084 -8.77736,-0.1758 -4.85086,-0.107 -9.72674,-0.2076 -14.51562,-1.0664 -4.82268,-1.0234 -9.51516,-2.4508 -13.97266,-4.5937 -6.39682,-2.8367 -12.70628,-5.8911 -18.67186,-9.5664 -9.34532,-5.5425 -18.62124,-11.2393 -27.16408,-17.9844 -6.81422,-5.197 -13.67806,-10.3718 -19.71092,-16.4883 -0.32502,-0.3265 -0.63524,-0.6666 -0.95704,-0.9961 -1.0727,-0.2017 -2.16894,-0.3279 -3.19532,-0.6953 -2.89114,-1.0348 -5.67192,-2.3534 -8.5078,-3.5312 -5.50256,-5.7883 -8.87552,-8.6768 -10.51954,-11.418 -0.21188,-0.054 -0.40612,-0.1572 -0.6211,-0.2031 -4.29096,-1.1695 -8.61288,-2.2688 -12.78124,-3.8321 -5.1934,-2.2947 -10.26864,-4.8968 -14.53908,-8.7187 -4.19274,-3.9166 -7.99528,-8.2265 -10.53904,-13.4297 -2.41666,-4.4999 -5.05526,-8.8964 -6.82814,-13.7148 -2.7182,-7.576 -4.56402,-15.3561 -5.46094,-23.3672 -0.149,-1.0011 -0.74698,-5.0496 -0.9414,-6.3203 -0.81802,-0.4475 -1.33788,-0.8372 -1.29298,-1.0938 0.186,-1.063 0.29318,-1.8552 0.46486,-2.8711 -1.94724,-3.659 -4.0412,-7.2716 -6.53124,-10.582 0.40018,0.227 1.4257,1.0841 1.1992,0.6836 -0.50634,-0.8954 -4.10038,-2.805 -5.14062,-3.5078 -14.20986,-9.6009 -20.57204,-20.9053 -21.1797,-30.5313 z m 234.9883,1.5195 c 0.1996,-0.03 -0.39996,0.025 -0.60158,0.035 -0.02,10e-4 -0.0394,0 -0.0586,-0.012 -0.121,0.026 -0.2423,0.052 -0.36328,0.078 0.3416,-0.032 0.68438,-0.052 1.02344,-0.1016 z m 245.64452,24.5938 c -0.025,-0.01 -0.066,0.016 -0.094,0.012 0.5359,1.496 0.6438,0.1786 0.094,-0.012 z m 98.8008,28.0391 c -0.7459,0.6754 -1.4789,1.3711 -2.2422,2.0117 -6.7902,5.5112 -13.9761,10.4808 -21.8945,14.2578 -6.5902,2.9917 -13.376,5.6831 -20.6367,6.4805 -1.345,0.1204 -2.6886,0.2001 -4.0313,0.25 0.326,5.3432 -0.6582,10.6601 -3.7109,15.5468 -1.985,3.1775 -5.1365,5.4624 -7.7032,8.1914 -1.4561,0.8594 -2.8517,1.8247 -4.3672,2.5743 -4.3615,2.1573 -9.0716,3.3269 -13.789,4.4414 -0.188,0.196 -0.3785,0.3897 -0.5664,0.5859 -7.9974,8.3616 -16.0604,16.6598 -24.1485,24.9336 -3.559,3.6522 -7.3032,7.1072 -11.1484,10.4531 -7.0136,6.1028 -13.8693,9.7279 -20.1367,11.3789 -2.3996,2.7337 -5.0343,5.248 -8.0703,7.375 -4.4556,3.4731 -9.1846,6.5562 -13.7149,9.9297 -6.4482,4.8101 -12.9015,9.6157 -19.4414,14.3008 -0.818,0.589 -1.6897,1.1522 -2.5312,1.7422 h 178.1328 z m -294.3633,22.8007 c 0.60768,1.2026 1.28716,0.8486 1.6914,0.4961 -0.563,-0.1688 -1.12988,-0.3214 -1.6914,-0.4961 z m -69.38282,23.7696 c -0.0262,-0.01 -0.1064,-7e-4 -0.25388,0.012 -0.1298,0.1784 -0.2404,0.3361 -0.3633,0.5078 0.3655,-0.2976 0.67472,-0.5047 0.61718,-0.5195 z" /></clipPath></defs><sodipodi:namedview
     id="namedview39"
     pagecolor="#ffffff"
     bordercolor="#000000"
     borderopacity="0.25"
     inkscape:showpageshadow="2"
     inkscape:pageopacity="0.0"
     inkscape:pagecheckerboard="0"
     inkscape:deskcolor="#d1d1d1"
     showgrid="false" /><g
     id="g125"
     transform="matrix(1.1041705,0,0,1.1041705,-83.310428,-90.660814)"><path
       style="display:block;fill:#3498db;fill-opacity:1;stroke-width:0.566088"
       d="m 887.71021,1410.2337 c -5.91561,-0.5231 -17.64071,-2.2148 -26.05572,-3.7593 C 772.09986,1390.0372 696.539,1333.56 655.55245,1252.4255 620.42054,1182.8803 614.44171,1104.0829 638.81531,1031.84 c 3.18635,-9.4444 5.33988,-18.4766 5.74038,-19.954 0.17719,-0.6536 1.11942,-2.7978 1.52095,-3.9626 0.3526,-1.0229 5.06863,-8.12097 9.33993,-16.60428 41.15573,-81.74042 119.03917,-139.4753 208.99953,-154.93099 79.5997,-13.67564 159.1538,5.66383 224.7218,54.62944 13.971,10.43347 44.8204,41.28286 55.2539,55.254 78.7995,105.51713 78.7995,245.25793 0,350.77523 -4.4587,5.9703 -16.2724,19.0209 -26.2526,29.0013 -26.0143,26.0141 -45.2587,39.8734 -77.0192,55.4672 -20.4756,10.053 -34.3998,15.2733 -54.1822,20.3134 -33.81896,8.6161 -66.00553,11.3425 -99.22759,8.405 z m 48.68356,-19.1521 c 72.37243,-6.4466 138.58083,-40.8957 184.69563,-96.0994 l 8.901,-10.6556 -11.319,-11.634 -11.3191,-11.6342 v -19.8906 -19.8905 l -18.964,-37.6383 -18.9639,-37.6381 -0.5661,-19.247 -0.5661,-19.2469 -10.4013,-7.0871 -10.4012,-7.0871 -19.0353,4.7105 -19.0353,4.7105 -36.65011,-15.705 c -33.23684,-14.2423 -36.79384,-16.0243 -38.1935,-19.1347 -1.58821,-3.5294 -10.63565,-64.5956 -10.63565,-71.78588 0,-3.67816 1.48099,-5.50334 17.30609,-21.32847 l 17.3061,-17.30613 h 31.85087 c 17.5181,0 32.6926,0.32298 33.721,0.71768 1.0285,0.39459 5.9834,6.89051 11.0108,14.43521 5.0275,7.5447 9.3179,13.92529 9.5341,14.17919 0.2164,0.2538 11.9886,2.41089 26.1605,4.79348 l 25.7673,4.33203 22.6436,-7.48231 c 12.4539,-4.11526 23.0172,-7.81787 23.4739,-8.22799 1.1433,-1.02666 -10.2639,-17.93809 -19.7348,-29.25721 -4.2985,-5.13726 -8.0315,-9.34047 -8.2957,-9.34047 -0.2643,0 -5.8917,3.56628 -12.5053,7.92519 -6.6136,4.35892 -12.613,7.92682 -13.3319,7.92865 -5.2341,0.0142 -55.1617,-11.1338 -65.6563,-14.6596 l -13.0338,-4.3787 -17.3512,4.39533 c -9.54323,2.41749 -18.87909,4.40761 -20.74644,4.42262 -1.86736,0.0152 -10.39609,-2.3059 -18.95268,-5.15754 -15.9236,-5.30696 -20.10874,-8.03211 -20.10874,-13.09389 0,-2.86574 21.29645,-45.26798 23.62647,-47.04143 1.3016,-0.99065 7.61235,-1.41679 21.35878,-1.44215 l 19.51131,-0.0355 8.5101,-4.21081 c 4.6805,-2.31605 8.51,-4.53928 8.51,-4.94047 0,-1.12384 -21.8738,-8.51282 -34.53137,-11.66482 -46.27304,-11.52282 -90.99613,-11.10175 -137.27234,1.29253 -6.38048,1.70883 -11.60168,3.36177 -11.60276,3.67309 0,0.31141 2.1624,1.91505 4.80779,3.56374 3.9985,2.49204 9.10603,3.70068 30.28365,7.16653 14.01068,2.29282 27.36583,4.65228 29.67818,5.24316 4.72378,1.20701 7.68363,4.63615 7.68363,8.90204 0,4.66739 -10.27914,34.09655 -12.60497,36.08799 -1.17825,1.00881 -8.12217,3.88074 -15.43088,6.38201 l -13.28857,4.5477 -14.28692,23.67332 -14.28698,23.67333 -25.118,15.09761 c -13.81487,8.30374 -26.29925,15.39424 -27.743,15.75654 -1.44381,0.3623 -15.55401,2.5304 -31.35606,4.8178 l -28.731,4.1589 -0.33731,7.7534 -0.33731,7.7533 9.67774,10.0391 9.67779,10.0392 v 9.9104 9.9104 l 6.51,-6.3458 c 14.39449,-14.0314 17.60182,-12.6819 30.34899,12.7701 l 8.44219,16.8561 h 32.13448 c 29.31627,0 32.35633,0.1797 34.66371,2.0481 1.3911,1.1264 8.48236,11.9529 15.75841,24.0588 l 13.22918,22.0106 18.78377,0.5661 c 21.5038,0.648 23.54172,1.4298 23.54172,9.0298 0,4.7286 -8.44422,47.7774 -10.23232,52.1646 -0.64727,1.588 -9.30881,11.0074 -19.24795,20.932 l -18.07111,18.0446 -0.0164,13.0334 c -0.0103,8.1342 -0.54894,14.0971 -1.43266,15.8636 -0.77882,1.5567 -9.30507,8.7959 -18.94729,16.0869 l -17.53124,13.2564 -0.56609,23.7341 c -0.55312,23.1914 -0.62886,23.8009 -3.31082,26.6529 -1.57072,1.6701 -3.99154,2.9185 -5.65957,2.9185 -5.05862,0 -34.36346,-10.3465 -36.68414,-12.9519 -1.18273,-1.3278 -6.53922,-13.0948 -11.90341,-26.149 l -9.75301,-23.7348 -0.3567,-46.5913 -0.35669,-46.5913 -2.50052,-0.5899 c -1.37525,-0.3245 -10.65214,-2.2004 -20.61528,-4.1685 -9.96314,-1.9683 -19.26589,-4.3149 -20.67278,-5.215 -1.50614,-0.9634 -6.84097,-10.119 -12.97389,-22.2655 l -10.41592,-20.6291 -0.44436,-14.493 c -0.59464,-19.3946 -0.20209,-20.9637 7.26159,-29.0254 l 6.24509,-6.7453 -22.42775,-14.9187 c -12.33527,-8.2054 -23.8136,-16.2095 -25.50741,-17.7873 -2.11973,-1.9744 -4.36193,-6.7166 -7.19348,-15.2142 -2.26258,-6.7903 -4.25806,-12.1865 -4.43436,-11.9916 -0.88258,0.9756 -5.19464,18.7936 -7.20962,29.791 -10.6973,58.3839 -1.89807,117.7066 25.38509,171.1414 26.70616,52.3047 69.44154,94.2176 122.20353,119.8517 19.64132,9.5427 34.14245,14.8304 53.88392,19.6486 29.34871,7.1629 58.32685,9.4587 87.07195,6.8982 z m -118.87845,-69.9432 c 0,-13.6978 0.40702,-19.5872 1.45247,-21.0169 0.79892,-1.0925 9.3327,-7.9405 18.96394,-15.2177 l 17.51148,-13.2314 0.56609,-14.4279 0.56608,-14.4278 19.38291,-19.5375 19.38296,-19.5374 2.97836,-15.2843 c 1.63808,-8.4064 2.97801,-15.9212 2.97757,-16.6996 0,-1.049 -3.32629,-1.4152 -12.85196,-1.4152 -7.06805,0 -14.45964,-0.5608 -16.42571,-1.2462 -3.04013,-1.0597 -5.64678,-4.7 -17.4303,-24.3417 l -13.85568,-23.0956 h -32.30245 c -27.59972,0 -32.67402,-0.2603 -34.85482,-1.7878 -1.40384,-0.9833 -5.65108,-7.9887 -9.43832,-15.5675 -3.78719,-7.5787 -7.10084,-14.0101 -7.36356,-14.2919 -0.26272,-0.2817 -8.6111,7.6092 -18.55194,17.5354 l -18.07423,18.0478 v 11.067 11.0672 l 8.06398,16.1184 c 4.43519,8.8651 8.47898,16.3833 8.98619,16.7073 0.50723,0.3239 10.99937,2.5762 23.31592,5.0053 18.22803,3.5949 22.87459,4.8973 24.97908,7.0019 l 2.58537,2.5854 v 49.2979 49.2979 l 8.53316,21.3288 8.53315,21.3286 5.336,1.7759 c 2.93477,0.9766 5.71811,1.8244 6.18513,1.884 0.46703,0.06 0.84913,-8.4555 0.84913,-18.9224 z m 332.50808,-68.4093 c 10.4486,-18.0833 20.7588,-44.2262 26.2406,-66.5359 14.283,-58.1299 8.7474,-119.9671 -15.6103,-174.3779 -3.1802,-7.1038 -6.178,-13.31199 -6.662,-13.79586 -0.4839,-0.48396 -13.2916,3.26126 -28.4616,8.32266 l -27.5819,9.2025 -31.0997,-5.1824 c -26.1279,-4.3538 -31.5213,-5.5781 -33.7356,-7.6584 -1.4496,-1.3618 -6.1001,-7.75166 -10.3343,-14.1996 l -7.6986,-11.72356 -24.362,-0.0203 -24.36205,-0.0203 -11.52606,11.60477 -11.52612,11.60488 4.09084,28.54111 4.09089,28.5411 29.15624,12.5002 c 16.03586,6.8752 29.98846,12.5003 31.00566,12.5003 1.0172,0 8.9304,-1.7832 17.5848,-3.9626 8.6543,-2.1794 17.5195,-3.9626 19.7001,-3.9626 3.1256,0 7.4532,2.3229 20.4437,10.9736 14.476,9.64 16.6149,11.4633 17.5978,15.0014 0.6153,2.2152 1.1217,12.0549 1.1251,21.8661 l 0.01,17.8383 18.9433,37.6383 18.9434,37.6382 0.3803,19.247 0.3802,19.2469 6.9995,7.1253 c 8.1211,8.2668 6.4183,9.0992 16.2715,-7.9537 z M 720.14821,1074.9806 v -8.1847 l -9.34045,-9.3881 -9.34045,-9.3882 v -18.0634 c 0,-24.8554 -3.47557,-22.3542 39.55726,-28.4692 l 33.89643,-4.81679 22.36699,-13.36636 22.36698,-13.36636 14.17891,-23.60242 c 7.79837,-12.9813 14.90781,-24.2074 15.79877,-24.94679 0.89092,-0.73938 7.40285,-3.27667 14.47091,-5.63826 l 12.85099,-4.29379 2.48614,-6.90746 2.4862,-6.90736 -3.05229,-0.62304 c -1.67873,-0.34266 -12.41153,-2.1789 -23.85064,-4.08046 -11.43917,-1.90167 -22.13822,-4.17623 -23.77569,-5.05469 -1.63752,-0.87846 -7.5083,-4.64223 -13.04623,-8.36381 l -10.06894,-6.76666 -6.3476,2.80112 c -27.87535,12.30125 -54.62034,31.06972 -78.80685,55.30299 -22.57396,22.61766 -37.92296,43.72388 -51.06985,70.22554 l -6.1781,12.454 7.43037,22.0774 7.43038,22.0774 18.92925,12.6612 c 10.41108,6.9638 19.31136,12.6954 19.77838,12.737 0.46702,0.042 0.84913,-3.6074 0.84913,-8.1088 z M 1093.4042,932.4528 c 3.9352,-2.56397 7.155,-5.05053 7.155,-5.52567 0,-1.35167 -18.3773,-16.80269 -29.2409,-24.58485 -5.4005,-3.86867 -14.9938,-10.12246 -21.3184,-13.89729 l -11.4992,-6.86344 -18.3389,9.08555 -18.3389,9.08555 h -16.8538 -16.85376 l -5.74115,11.44055 c -3.15763,6.29233 -5.58229,11.56897 -5.38813,11.72599 0.19411,0.15693 3.66457,1.39387 7.7121,2.74868 l 7.35914,2.46324 19.5361,-4.81752 19.5363,-4.81753 16.1668,5.34612 c 14.4363,4.7737 48.9926,12.86535 56.2012,13.15993 1.5133,0.0619 5.9713,-1.98535 9.9065,-4.54931 z"
       id="path39"
       sodipodi:nodetypes="ssssssssscscssscscccccccccccccsssscssssscssssscscsssssccsssscsssssscccssscccccccsscssscsssscssscssssscccsssscsscssssssssccssscccccscssscssssscccsssscccccscscsssscssscccccccssssssccccccsccscccsscccssscccsssscssscccscssssscccccssscccsss"
       clip-path="url(#clipPath123)"
       transform="matrix(2.2325499,0,0,2.2325499,-1317.7885,-1029.9911)" /><path
       fill="rgb(32,63,118)"
       d="m 1535.7898,1300.4338 c 6.2511,0.5582 12.346,0.9823 17.3915,5.1572 l 292.4864,245.4689 c 18.039,15.3376 29.626,33.7338 30.9878,57.9793 1.1833,20.9413 -7.0772,40.878 -21.4325,55.97 -14.8911,15.6279 -38.6901,28.2864 -60.6807,27.9515 -16.4092,-0.2232 -31.2557,-6.9878 -44.4054,-16.3645 -23.866,-16.9898 -44.1598,-42.7311 -65.57,-62.958 a 5526.8559,5526.8559 0 0 1 -201.6439,-197.536 c 15.3153,-20.7627 33.265,-39.2035 50.9691,-57.9123 0.6698,-0.6921 1.2949,-1.4288 1.987,-2.1209 2.2102,-2.2103 6.2511,-6.2065 9.6893,-5.3805 9.5553,2.2995 24.8706,19.3116 33.1087,26.4334 50.9914,44.1598 100.5763,90.5522 150.005,136.4758 24.692,22.9059 49.1161,49.3617 76.2193,69.276 7.1441,5.2688 12.2343,8.8409 21.3655,8.9749 3.9516,-2.6791 5.8716,-3.6614 6.2734,-8.9749 0.6698,-8.4837 -5.4028,-18.3069 -11.3637,-23.8883 -22.1469,-20.6957 -49.7635,-36.904 -73.0713,-56.6174 a 10568.735,10568.735 0 0 1 -203.9435,-177.8226 c -17.012,17.1013 -67.3783,82.6713 -85.7075,87.8954 -5.8717,1.6745 -6.8093,1.2056 -11.654,-1.6967 -3.2372,-6.2065 -4.6213,-10.0018 -2.4558,-16.9004 7.0102,-22.4148 69.5886,-82.6043 91.4453,-93.4099 z"
       id="path21"
       style="fill:#3498db;fill-opacity:1;stroke-width:2.23255" /><path
       fill="rgb(32,63,118)"
       d="m 594.6606,343.38433 a 2674.3046,2674.3046 0 0 1 69.57742,1.43999 c 1.08725,17.33798 3.67254,33.85439 6.90751,50.92 17.20849,3.8958 34.0888,9.85448 50.91106,15.16794 a 1191.9874,1191.9874 0 0 1 43.79817,-29.86035 1255.9143,1255.9143 0 0 1 46.0709,40.48283 l -26.69237,42.92077 c 11.1181,14.63213 20.12197,30.44975 29.37813,46.28299 18.12384,2.16781 36.60712,3.02287 54.81356,4.4718 a 1903.8717,1903.8717 0 0 1 4.44501,62.68777 l -49.73452,14.16776 c -1.90213,17.89612 -6.14621,35.19168 -11.55567,52.31088 12.64962,9.91475 24.8639,19.60402 35.9954,31.23337 -11.05559,16.42487 -26.23693,30.91635 -39.9113,45.13546 -12.10711,-5.26435 -24.10707,-10.11122 -36.61158,-14.35753 -14.96702,13.0381 -29.35803,26.30614 -43.28915,40.44934 1.12298,12.922 5.21301,28.9919 -3.98286,39.84655 -10.76983,12.71214 -46.20263,10.87252 -62.6208,12.0848 -1.49804,-7.15086 -2.97599,-14.00032 -5.48537,-20.87211 -6.38956,-4.19496 -9.78304,-3.3265 -17.3045,-3.4225 -13.08497,0.34381 -26.21013,0.21432 -39.30181,0.26344 -9.61782,15.14562 -19.24011,30.12156 -29.89607,44.5617 -17.03436,-8.62881 -33.8343,-16.92943 -51.72372,-23.71192 3.34436,-15.58096 4.8424,-31.56825 6.72891,-47.3814 a 3573.5757,3573.5757 0 0 0 -40.2752,-34.63355 1758.9658,1758.9658 0 0 1 -51.45805,14.77948 c -11.17168,-15.1858 -20.01257,-32.99932 -29.47859,-49.33266 13.66767,-10.84126 26.15433,-24.00884 38.85754,-35.99763 -4.43385,-15.79752 -7.11737,-32.03263 -10.10229,-48.15164 l -51.208,-19.93444 c 5.117,-19.53927 8.24927,-39.76394 11.54228,-59.67382 16.73743,-1.23014 33.66686,-0.89079 50.45117,-0.98679 7.72015,-17.81575 18.08365,-34.70052 27.7171,-51.52055 -9.50396,-13.56274 -17.98988,-27.31525 -26.12976,-41.73529 16.78654,-14.41781 33.34536,-29.1839 51.37097,-42.05678 12.64963,11.77894 25.1787,22.93945 39.17456,33.10425 l 47.76094,-16.59901 c 2.48259,-17.59249 7.06602,-34.83671 11.26098,-52.08315 z"
       id="path24"
       style="fill:#19b46a;fill-opacity:1;stroke-width:2.23255" /><path
       fill="#fefefe"
       d="m 606.08009,472.95259 c 24.70763,-2.12092 46.53974,-1.74585 69.32961,9.78081 27.04734,13.68106 49.86623,38.16767 58.76518,67.38282 8.66452,28.44938 4.59905,61.56256 -10.21615,87.286 -17.2152,29.89608 -44.64207,45.31183 -77.052,53.4852 -26.39097,1.99813 -51.04502,0.52018 -74.85963,-12.33261 a 109.52756,109.52756 0 0 1 -52.48725,-65.92273 105.94633,105.94633 0 0 1 9.61559,-81.91002 c 16.92496,-30.28454 44.3831,-48.26327 76.90465,-57.76947 z"
       id="path25"
       style="stroke-width:2.23255" /><path
       fill="rgb(73,172,125)"
       d="m 1365.9597,336.82956 c 10.3144,9.83438 37.0603,63.20795 46.504,79.51227 33.7785,-1.77935 66.597,-0.192 100.1745,2.90008 a 5377.6323,5377.6323 0 0 0 48.2678,-77.6213 c 36.3236,11.13819 72.1337,24.66968 107.9884,37.2568 -8.4614,30.80249 -13.4399,62.73018 -19.2446,94.13323 26.3441,18.88514 51.8845,38.3887 76.5765,59.38583 27.7059,-11.32796 55.6575,-24.08475 84.3681,-32.55504 a 2615.1197,2615.1197 0 0 1 65.3244,85.89959 c -23.1069,23.8213 -47.1068,47.51536 -68.0705,73.24549 9.1088,30.01887 19.9144,58.41244 26.6343,89.206 31.7469,6.30919 63.3821,14.50711 94.7941,22.41703 a 2293.4539,2293.4539 0 0 0 0.96,107.2584 c -32.7738,6.26007 -65.4807,12.69874 -98.5447,17.26208 a 680.39415,680.39415 0 0 1 -33.2874,85.91522 l 66.8649,70.47046 c -25.3841,29.1883 -50.5226,58.6379 -72.5802,90.4473 -29.1124,-12.096 -57.3765,-27.2327 -86.1318,-40.2775 -23.0399,16.5767 -46.4147,32.7672 -70.9504,47.0756 3.5721,34.7608 9.466,69.247 11.6093,104.1417 -29.1572,11.8995 -62.1319,19.4679 -92.9858,25.4734 l -11.7432,-15.3599 c -14.8911,-23.1962 -23.5757,-52.8668 -40.6547,-73.7791 -6.2735,-1.2346 -11.8102,-1.0426 -18.1283,-0.7099 0.6251,-15.8601 8.7069,-35.5177 12.346,-51.3241 6.8539,-29.6215 10.2027,-58.3477 11.2744,-88.6925 48.7142,-15.0363 91.7578,-34.0241 126.8981,-72.26545 a 250.58364,250.58364 0 0 0 66.4853,-179.08176 249.64373,249.64373 0 0 0 -82.7383,-175.99414 c -50.277,-45.55518 -112.833,-71.58671 -181.35,-67.7244 a 243.53101,243.53101 0 0 0 -169.3835,82.17793 c -64.9672,-29.48306 -126.4517,-41.03204 -197.2905,-42.85156 -14.9357,-16.19939 -30.0501,-31.84956 -45.9459,-47.11127 20.093,-31.08603 47.0845,-59.50862 71.8435,-86.9355 29.8938,17.26654 61.2165,39.59428 88.208,61.11159 a 613.31718,613.31718 0 0 1 81.5328,-54.2398 c -0.5582,-30.65514 -4.5098,-62.42209 -9.5777,-92.64189 35.252,-14.75715 73.5849,-24.24772 109.9531,-36.12489 z"
       id="path31"
       style="fill:#19b46a;fill-opacity:1;stroke-width:2.23255" /><path
       fill="rgb(32,63,118)"
       d="m 1071.2408,618.59969 a 363.61317,363.61317 0 0 1 219.482,63.47809 c 95.9996,66.95863 167.0617,172.00234 186.9314,287.84489 15.5609,90.63933 0.9377,193.87913 -53.0454,269.87513 23.7543,23.9999 48.4017,46.8835 71.6202,71.4862 -13.5069,15.1813 -27.1701,29.8715 -41.6817,44.0929 -20.785,-22.2586 -43.2445,-43.3338 -64.8556,-64.8333 -41.3022,45.3208 -88.9671,77.2686 -145.8078,99.6387 a 396.75984,396.75984 0 0 1 -112.5205,23.5981 378.33684,378.33684 0 0 1 -276.79827,-96.6471 C 770.42925,1242.2536 723.12375,1137.0737 716.93066,1025.089 710.9184,916.31915 746.28199,814.85199 819.57884,733.86624 886.55087,659.86837 972.56209,623.52246 1071.2408,618.59969 Z"
       id="path32"
       style="fill:#3498db;fill-opacity:1;stroke-width:2.23255" /><path
       fill="#fefefe"
       d="m 1073.518,665.46761 c 87.5829,-2.50269 165.3426,30.95207 229.8633,89.48729 76.7105,69.57519 126.6303,164.58582 131.2293,268.7365 3.8623,87.4244 -24.1338,166.8072 -83.3187,231.377 -58.6715,64.0072 -136.7437,102.675 -223.9248,106.5596 -90.9318,4.7777 -174.83098,-26.6566 -243.01529,-86.6676 -70.10207,-61.7077 -112.62544,-154.5884 -118.59752,-247.2125 -6.15514,-95.42583 22.25183,-188.29991 86.23671,-260.41797 59.12685,-66.64385 134.145,-96.43276 221.527,-101.86232 z"
       id="path33"
       style="stroke-width:2.23255" /><rect
       style="fill:#3498db;fill-opacity:1;stroke-width:4.35347;stroke-linecap:round;stroke-linejoin:round;stroke-miterlimit:5.2;stroke-dasharray:none"
       id="rect39"
       width="1293.6154"
       height="55.286278"
       x="75.450691"
       y="1456.4773"
       ry="27.643139" /><path
       style="fill:#19b46a;fill-opacity:1;stroke-width:0.605651"
       d="m 1091.7327,1272.2255 c -5.3097,-2.6169 -8.3582,-7.172 -10.5258,-15.7263 -0.9879,-3.9 -22.5333,-97.0298 -47.8777,-206.9553 -25.3446,-109.92553 -46.4866,-201.1147 -46.9827,-202.64245 -0.6688,-2.05993 -7.74201,19.54075 -27.36836,83.5797 -14.556,47.49665 -27.50211,88.53795 -28.76819,91.20275 -1.2663,2.6649 -3.79333,5.9354 -5.61576,7.2677 -3.17468,2.3211 -5.5135,2.437 -55.77423,2.7627 -51.56286,0.3341 -52.53886,0.2959 -57.04013,-2.234 -5.94638,-3.342 -9.06692,-8.735 -9.06692,-15.6699 0,-6.9118 3.11717,-12.3259 9.0007,-15.63276 4.33945,-2.43877 6.12967,-2.53662 46.39967,-2.53662 h 41.88634 l 4.24365,-13.62713 c 2.33393,-7.495 18.37065,-59.55137 35.63697,-115.68098 17.26587,-56.12965 32.28088,-103.40878 33.3659,-105.06469 2.49376,-3.80596 10.39116,-7.88744 15.26176,-7.88744 4.952,0 12.448,3.93353 15.0427,7.89336 1.2196,1.86112 22.4585,91.442 51.0347,215.2523 26.9201,116.63556 49.1663,212.28556 49.4365,212.55546 0.2697,0.27 1.0401,-1.0359 1.7114,-2.902 12.8296,-35.6633 107.417,-291.05256 108.7518,-293.6341 2.7197,-5.25976 8.5047,-8.33539 15.6772,-8.33539 11.7222,0 10.9605,-1.09104 40.5433,58.06273 l 26.6464,53.28249 44.534,0.34551 c 42.3593,0.3286 44.6919,0.46379 47.763,2.768 4.883,3.66376 7.533,8.99036 7.533,15.14126 0,6.9349 -3.1206,12.3279 -9.0668,15.6699 -4.5013,2.5299 -5.4771,2.5681 -57.0401,2.234 -50.2413,-0.3256 -52.6029,-0.4425 -55.8245,-2.7627 -2.3897,-1.7209 -8.99,-13.5937 -22.793,-41.00196 -10.6861,-21.21878 -19.6131,-38.38894 -19.8379,-38.15606 -0.2258,0.2331 -26.4042,71.00042 -58.1761,157.26122 -31.772,86.2606 -58.7953,158.2807 -60.0513,160.045 -4.7114,6.6166 -14.9407,8.9302 -22.6595,5.1257 z"
       id="path125" /></g></svg>
